<?xml version="1.0" standalone="no"?>
<!DOCTYPE svg PUBLIC "-//W3C//DTD SVG 20010904//EN"
 "http://www.w3.org/TR/2001/REC-SVG-20010904/DTD/svg10.dtd">
<svg version="1.0" xmlns="http://www.w3.org/2000/svg"
 width="100.000000pt" height="100.000000pt" viewBox="0 0 100.000000 100.000000"
 preserveAspectRatio="xMidYMid meet">
<metadata>
Created by potrace 1.14, written by Peter Selinger 2001-2017
</metadata>
<g transform="translate(0.000000,100.000000) scale(0.100000,-0.100000)"
fill="#000000" stroke="none">
<path d="M365 991 c5 -9 -34 -23 -65 -25 -8 -1 -14 -7 -12 -14 2 -10 -4 -11
-19 -7 -14 5 -19 4 -15 -4 5 -7 1 -9 -8 -5 -11 4 -16 0 -16 -11 0 -9 -4 -13
-10 -10 -5 3 -10 1 -10 -5 0 -7 -7 -9 -16 -6 -14 5 -15 4 -5 -8 11 -13 9 -15
-7 -11 -12 2 -27 -4 -34 -13 -12 -16 -11 -16 7 -2 11 8 7 -1 -10 -20 -47 -55
-50 -57 -31 -25 l17 30 -20 -24 c-12 -13 -21 -32 -21 -43 0 -10 -3 -17 -7 -15
-5 3 -17 -7 -28 -22 -10 -14 -12 -21 -4 -14 12 10 15 8 15 -8 0 -13 -5 -17
-17 -14 -14 5 -17 0 -15 -24 1 -17 -2 -27 -8 -24 -5 4 -7 -1 -3 -10 3 -9 1
-19 -5 -23 -6 -4 -8 -3 -4 4 3 6 2 13 -2 16 -5 3 -9 -62 -10 -145 -1 -136 1
-150 16 -144 9 3 13 3 9 -1 -4 -4 -2 -13 4 -21 8 -8 8 -13 1 -13 -6 0 -13 6
-15 13 -4 9 -6 9 -6 -1 -1 -7 6 -15 14 -18 8 -4 12 -11 9 -16 -4 -6 0 -14 7
-19 12 -8 12 -10 0 -18 -11 -7 -10 -10 5 -15 11 -3 25 -19 32 -36 8 -16 18
-30 23 -30 6 0 7 5 3 12 -4 7 -3 8 5 4 6 -4 9 -11 6 -16 -3 -4 -2 -16 1 -25 6
-13 9 -14 16 -3 7 9 8 7 5 -9 -3 -12 -2 -22 2 -21 3 1 16 -1 28 -6 15 -5 20
-12 16 -24 -6 -15 -5 -16 12 -2 11 9 16 10 11 2 -4 -7 -1 -12 8 -12 9 0 16 -7
16 -15 0 -9 6 -12 15 -9 8 4 17 -1 21 -9 3 -9 12 -13 21 -10 10 4 14 2 10 -4
-4 -6 2 -13 13 -16 13 -3 18 -1 13 6 -5 8 -2 8 8 0 12 -10 18 -10 28 0 10 9
12 9 9 -3 -2 -8 -7 -18 -12 -22 -5 -3 53 -7 128 -7 87 -1 135 2 132 8 -4 5 -1
13 5 17 7 4 9 3 6 -3 -4 -6 2 -13 14 -16 17 -5 18 -3 7 11 -11 13 -11 14 0 8
8 -5 19 -1 28 10 9 11 13 13 9 6 -8 -16 7 -16 24 1 11 10 13 9 7 -3 -4 -8 2
-4 13 10 11 14 21 19 21 13 0 -9 6 -7 19 4 11 9 18 20 16 24 -3 4 2 9 10 13 8
3 15 1 15 -4 0 -6 5 -10 11 -10 5 0 7 4 4 10 -4 6 5 10 20 10 21 0 26 4 21 16
-5 13 -3 14 7 6 10 -8 16 -6 26 10 7 11 8 17 3 14 -5 -3 -15 1 -22 9 -11 13
-10 14 3 9 12 -4 14 -1 10 15 -3 13 -1 21 6 21 7 0 9 -6 5 -12 -4 -8 -3 -10 2
-5 5 5 9 13 9 17 0 5 9 16 20 24 11 9 15 16 8 16 -13 0 -6 37 10 47 6 4 7 1 2
-8 -6 -11 -5 -11 5 -2 7 6 13 27 13 47 1 26 4 32 13 25 10 -8 13 20 13 130 0
87 -4 141 -10 141 -6 0 -7 5 -4 10 3 6 1 10 -4 10 -6 0 -10 3 -10 8 4 25 -3
42 -18 43 -15 0 -15 2 2 9 11 5 14 9 7 9 -8 1 -10 6 -6 14 6 9 5 9 -7 0 -11
-9 -14 -7 -15 13 -1 14 2 21 9 17 6 -3 7 -1 3 5 -4 6 -14 8 -23 5 -11 -4 -14
-3 -9 5 4 7 2 12 -4 12 -7 0 -9 7 -6 16 3 8 2 13 -2 10 -4 -2 -14 -1 -22 5
-11 6 -12 9 -2 9 7 0 11 4 7 10 -3 5 -13 6 -22 3 -10 -4 -14 -2 -10 4 4 5 0
19 -8 29 -15 18 -15 18 -9 -1 7 -20 7 -20 -9 0 -8 11 -13 23 -11 27 3 4 -2 5
-10 2 -11 -4 -16 0 -16 12 0 16 -2 17 -10 4 -8 -13 -10 -13 -10 2 0 12 -5 15
-17 11 -10 -4 -14 -2 -10 4 10 16 -31 32 -85 35 -29 1 -37 13 -15 21 6 3 -54
5 -136 5 -81 1 -145 -3 -142 -7z"/>
</g>
</svg>
